<?xml version="1.0" encoding="UTF-8" standalone="no"?>
<svg width="24px" height="16px" viewBox="0 0 24 16" version="1.1" xmlns="http://www.w3.org/2000/svg" xmlns:xlink="http://www.w3.org/1999/xlink">
    <!-- Generator: Sketch 46.2 (44496) - http://www.bohemiancoding.com/sketch -->
    <title>icon_flag_uk</title>
    <desc>Created with Sketch.</desc>
    <defs></defs>
    <g id="Landing" stroke="none" stroke-width="1" fill="none" fill-rule="evenodd">
        <g id="Desktop-HD-Updated-2" transform="translate(-1289.000000, -24.000000)" fill-rule="nonzero">
            <g id="Menu">
                <g id="lang_selector" transform="translate(1245.000000, 24.000000)">
                    <g id="eng" transform="translate(44.000000, 0.000000)">
                        <g id="Group-3">
                            <g id="icon_flag_uk">
                                <path d="M22.2025781,0.01289186 L1.79742187,0.01289186 C0.804703125,0.01289186 0,0.814756211 0,1.80397292 L0,13.8905121 C0,14.8796821 0.804703125,15.6815931 1.79742187,15.6815931 L22.2025781,15.6815931 C23.19525,15.6815931 24,14.8797288 24,13.8905121 L24,1.80397292 C24,0.814756211 23.1952969,0.01289186 22.2025781,0.01289186 Z" id="Shape" fill="#41479B"></path>
                                <path d="M23.9751094,1.50788053 C23.8334531,0.659680214 23.094,0.0128451504 22.2025781,0.0128451504 L21.7349063,0.0128451504 L14.0689688,5.01764271 L14.0689688,0.01289186 L9.93103125,0.01289186 L9.93103125,5.01768942 L2.26509375,0.01289186 L1.79742187,0.01289186 C0.906,0.01289186 0.166546875,0.659680214 0.024890625,1.50792724 L6.57698438,5.78559586 L0,5.78559586 L0,9.90893585 L6.57698438,9.90893585 L0.024890625,14.1865111 C0.166546875,15.0347114 0.906,15.6815464 1.79742187,15.6815464 L2.26509375,15.6815464 L9.93103125,10.6767489 L9.93103125,15.6815464 L14.0689687,15.6815464 L14.0689687,10.6767489 L21.7349063,15.6815464 L22.2025781,15.6815464 C23.094,15.6815464 23.8334531,15.0347581 23.9751094,14.1865111 L17.4230156,9.90884243 L24,9.90884243 L24,5.78550244 L17.4230156,5.78550244 L23.9751094,1.50788053 Z" id="Shape" fill="#F5F5F5"></path>
                                <g id="Group" fill="#FF4B55">
                                    <polygon id="Shape" points="13.2413906 0.01289186 10.7586094 0.01289186 10.7586094 6.61020781 0 6.61020781 0 9.08423048 10.7586094 9.08423048 10.7586094 15.6815464 13.2413906 15.6815464 13.2413906 9.08423048 24 9.08423048 24 6.61020781 13.2413906 6.61020781"></polygon>
                                    <path d="M1.16217187,15.5660802 L9.90825,9.90888914 L8.3881875,9.90888914 L0.432375,15.0549833 C0.627046875,15.281385 0.87721875,15.4587882 1.16217187,15.5660802 Z" id="Shape"></path>
                                    <path d="M16.2369375,9.90888914 L14.716875,9.90888914 L23.1879375,15.3881632 C23.4249844,15.2330405 23.6227969,15.0235011 23.7638906,14.7774347 L16.2369375,9.90888914 Z" id="Shape"></path>
                                    <path d="M0.189796875,1.00308947 L7.58339062,5.78554915 L9.10345312,5.78554915 L0.725390625,0.366296979 C0.5004375,0.533143805 0.316359375,0.751277814 0.189796875,1.00308947 Z" id="Shape"></path>
                                    <path d="M15.5890312,5.78554915 L23.5594219,0.629972884 C23.3625937,0.404318624 23.1104531,0.227943032 22.8235312,0.122706218 L14.0689687,5.78554915 L15.5890312,5.78554915 Z" id="Shape"></path>
                                </g>
                            </g>
                        </g>
                    </g>
                </g>
            </g>
        </g>
    </g>
</svg>